<mxfile host="app.diagrams.net" modified="2023-09-19T21:07:57.534Z" agent="Mozilla/5.0 (Windows NT 10.0; Win64; x64) AppleWebKit/537.36 (KHTML, like Gecko) Chrome/117.0.0.0 Safari/537.36" etag="fwV_G_IA_c8zCWq1G2sg" version="21.7.2" type="github">
  <diagram id="C5RBs43oDa-KdzZeNtuy" name="Page-1">
    <mxGraphModel dx="1720" dy="935" grid="1" gridSize="10" guides="1" tooltips="1" connect="1" arrows="1" fold="1" page="1" pageScale="1" pageWidth="827" pageHeight="1169" math="0" shadow="0">
      <root>
        <mxCell id="WIyWlLk6GJQsqaUBKTNV-0" />
        <mxCell id="WIyWlLk6GJQsqaUBKTNV-1" parent="WIyWlLk6GJQsqaUBKTNV-0" />
        <mxCell id="zkfFHV4jXpPFQw0GAbJ--0" value="User" style="swimlane;fontStyle=2;align=center;verticalAlign=top;childLayout=stackLayout;horizontal=1;startSize=26;horizontalStack=0;resizeParent=1;resizeLast=0;collapsible=1;marginBottom=0;rounded=0;shadow=0;strokeWidth=1;fillColor=#7628FC;strokeColor=#6c8ebf;fontColor=#FFFFFF;fontSize=15;" parent="WIyWlLk6GJQsqaUBKTNV-1" vertex="1">
          <mxGeometry x="200" y="162" width="160" height="190" as="geometry">
            <mxRectangle x="230" y="140" width="160" height="26" as="alternateBounds" />
          </mxGeometry>
        </mxCell>
        <mxCell id="zkfFHV4jXpPFQw0GAbJ--1" value="str - E-mail" style="text;align=left;verticalAlign=top;spacingLeft=4;spacingRight=4;overflow=hidden;rotatable=0;points=[[0,0.5],[1,0.5]];portConstraint=eastwest;" parent="zkfFHV4jXpPFQw0GAbJ--0" vertex="1">
          <mxGeometry y="26" width="160" height="26" as="geometry" />
        </mxCell>
        <mxCell id="zkfFHV4jXpPFQw0GAbJ--2" value="str - Senha" style="text;align=left;verticalAlign=top;spacingLeft=4;spacingRight=4;overflow=hidden;rotatable=0;points=[[0,0.5],[1,0.5]];portConstraint=eastwest;rounded=0;shadow=0;html=0;" parent="zkfFHV4jXpPFQw0GAbJ--0" vertex="1">
          <mxGeometry y="52" width="160" height="26" as="geometry" />
        </mxCell>
        <mxCell id="WkUN_PDqijOp8YvRxsLI-98" value="int - N_Acesso" style="text;align=left;verticalAlign=top;spacingLeft=4;spacingRight=4;overflow=hidden;rotatable=0;points=[[0,0.5],[1,0.5]];portConstraint=eastwest;rounded=0;shadow=0;html=0;" vertex="1" parent="zkfFHV4jXpPFQw0GAbJ--0">
          <mxGeometry y="78" width="160" height="26" as="geometry" />
        </mxCell>
        <mxCell id="zkfFHV4jXpPFQw0GAbJ--4" value="" style="line;html=1;strokeWidth=1;align=left;verticalAlign=middle;spacingTop=-1;spacingLeft=3;spacingRight=3;rotatable=0;labelPosition=right;points=[];portConstraint=eastwest;" parent="zkfFHV4jXpPFQw0GAbJ--0" vertex="1">
          <mxGeometry y="104" width="160" height="8" as="geometry" />
        </mxCell>
        <mxCell id="zkfFHV4jXpPFQw0GAbJ--5" value="Logar()" style="text;align=left;verticalAlign=top;spacingLeft=4;spacingRight=4;overflow=hidden;rotatable=0;points=[[0,0.5],[1,0.5]];portConstraint=eastwest;" parent="zkfFHV4jXpPFQw0GAbJ--0" vertex="1">
          <mxGeometry y="112" width="160" height="26" as="geometry" />
        </mxCell>
        <mxCell id="WkUN_PDqijOp8YvRxsLI-99" value="Cadastrar()" style="text;align=left;verticalAlign=top;spacingLeft=4;spacingRight=4;overflow=hidden;rotatable=0;points=[[0,0.5],[1,0.5]];portConstraint=eastwest;" vertex="1" parent="zkfFHV4jXpPFQw0GAbJ--0">
          <mxGeometry y="138" width="160" height="26" as="geometry" />
        </mxCell>
        <mxCell id="WkUN_PDqijOp8YvRxsLI-100" value="Editar()" style="text;align=left;verticalAlign=top;spacingLeft=4;spacingRight=4;overflow=hidden;rotatable=0;points=[[0,0.5],[1,0.5]];portConstraint=eastwest;" vertex="1" parent="zkfFHV4jXpPFQw0GAbJ--0">
          <mxGeometry y="164" width="160" height="26" as="geometry" />
        </mxCell>
        <mxCell id="WkUN_PDqijOp8YvRxsLI-13" value="Condomínio" style="swimlane;fontStyle=2;align=center;verticalAlign=top;childLayout=stackLayout;horizontal=1;startSize=26;horizontalStack=0;resizeParent=1;resizeParentMax=0;resizeLast=0;collapsible=1;marginBottom=0;whiteSpace=wrap;html=1;fontSize=15;fillColor=#7628FC;strokeColor=#6c8ebf;fontColor=#FFFFFF;rounded=0;shadow=0;strokeWidth=1;" vertex="1" parent="WIyWlLk6GJQsqaUBKTNV-1">
          <mxGeometry x="580" y="210" width="160" height="244" as="geometry" />
        </mxCell>
        <mxCell id="WkUN_PDqijOp8YvRxsLI-44" value="str - Fantasia" style="text;strokeColor=none;fillColor=none;align=left;verticalAlign=top;spacingLeft=4;spacingRight=4;overflow=hidden;rotatable=0;points=[[0,0.5],[1,0.5]];portConstraint=eastwest;whiteSpace=wrap;html=1;" vertex="1" parent="WkUN_PDqijOp8YvRxsLI-13">
          <mxGeometry y="26" width="160" height="26" as="geometry" />
        </mxCell>
        <mxCell id="WkUN_PDqijOp8YvRxsLI-14" value="str - Endereço" style="text;strokeColor=none;fillColor=none;align=left;verticalAlign=top;spacingLeft=4;spacingRight=4;overflow=hidden;rotatable=0;points=[[0,0.5],[1,0.5]];portConstraint=eastwest;whiteSpace=wrap;html=1;" vertex="1" parent="WkUN_PDqijOp8YvRxsLI-13">
          <mxGeometry y="52" width="160" height="26" as="geometry" />
        </mxCell>
        <mxCell id="WkUN_PDqijOp8YvRxsLI-45" value="str - CNPJ" style="text;strokeColor=none;fillColor=none;align=left;verticalAlign=top;spacingLeft=4;spacingRight=4;overflow=hidden;rotatable=0;points=[[0,0.5],[1,0.5]];portConstraint=eastwest;whiteSpace=wrap;html=1;" vertex="1" parent="WkUN_PDqijOp8YvRxsLI-13">
          <mxGeometry y="78" width="160" height="26" as="geometry" />
        </mxCell>
        <mxCell id="WkUN_PDqijOp8YvRxsLI-46" value="str - Telefone" style="text;strokeColor=none;fillColor=none;align=left;verticalAlign=top;spacingLeft=4;spacingRight=4;overflow=hidden;rotatable=0;points=[[0,0.5],[1,0.5]];portConstraint=eastwest;whiteSpace=wrap;html=1;" vertex="1" parent="WkUN_PDqijOp8YvRxsLI-13">
          <mxGeometry y="104" width="160" height="26" as="geometry" />
        </mxCell>
        <mxCell id="WkUN_PDqijOp8YvRxsLI-41" value="img - Logo" style="text;strokeColor=none;fillColor=none;align=left;verticalAlign=top;spacingLeft=4;spacingRight=4;overflow=hidden;rotatable=0;points=[[0,0.5],[1,0.5]];portConstraint=eastwest;whiteSpace=wrap;html=1;" vertex="1" parent="WkUN_PDqijOp8YvRxsLI-13">
          <mxGeometry y="130" width="160" height="26" as="geometry" />
        </mxCell>
        <mxCell id="WkUN_PDqijOp8YvRxsLI-47" value="fk - TORRE" style="text;strokeColor=none;fillColor=none;align=left;verticalAlign=top;spacingLeft=4;spacingRight=4;overflow=hidden;rotatable=0;points=[[0,0.5],[1,0.5]];portConstraint=eastwest;whiteSpace=wrap;html=1;" vertex="1" parent="WkUN_PDqijOp8YvRxsLI-13">
          <mxGeometry y="156" width="160" height="26" as="geometry" />
        </mxCell>
        <mxCell id="WkUN_PDqijOp8YvRxsLI-101" value="fk - USER" style="text;strokeColor=none;fillColor=none;align=left;verticalAlign=top;spacingLeft=4;spacingRight=4;overflow=hidden;rotatable=0;points=[[0,0.5],[1,0.5]];portConstraint=eastwest;whiteSpace=wrap;html=1;" vertex="1" parent="WkUN_PDqijOp8YvRxsLI-13">
          <mxGeometry y="182" width="160" height="26" as="geometry" />
        </mxCell>
        <mxCell id="WkUN_PDqijOp8YvRxsLI-15" value="" style="line;strokeWidth=1;fillColor=none;align=left;verticalAlign=middle;spacingTop=-1;spacingLeft=3;spacingRight=3;rotatable=0;labelPosition=right;points=[];portConstraint=eastwest;strokeColor=inherit;" vertex="1" parent="WkUN_PDqijOp8YvRxsLI-13">
          <mxGeometry y="208" width="160" height="10" as="geometry" />
        </mxCell>
        <mxCell id="WkUN_PDqijOp8YvRxsLI-123" value="Editar()" style="text;align=left;verticalAlign=top;spacingLeft=4;spacingRight=4;overflow=hidden;rotatable=0;points=[[0,0.5],[1,0.5]];portConstraint=eastwest;" vertex="1" parent="WkUN_PDqijOp8YvRxsLI-13">
          <mxGeometry y="218" width="160" height="26" as="geometry" />
        </mxCell>
        <mxCell id="WkUN_PDqijOp8YvRxsLI-17" value="Torre / Bloco" style="swimlane;fontStyle=2;align=center;verticalAlign=top;childLayout=stackLayout;horizontal=1;startSize=26;horizontalStack=0;resizeParent=1;resizeParentMax=0;resizeLast=0;collapsible=1;marginBottom=0;whiteSpace=wrap;html=1;fontSize=15;fillColor=#7628FC;strokeColor=#6c8ebf;fontColor=#FFFFFF;rounded=0;shadow=0;strokeWidth=1;" vertex="1" parent="WIyWlLk6GJQsqaUBKTNV-1">
          <mxGeometry x="1000" y="228" width="160" height="138" as="geometry" />
        </mxCell>
        <mxCell id="WkUN_PDqijOp8YvRxsLI-18" value="str - Nome" style="text;strokeColor=none;fillColor=none;align=left;verticalAlign=top;spacingLeft=4;spacingRight=4;overflow=hidden;rotatable=0;points=[[0,0.5],[1,0.5]];portConstraint=eastwest;whiteSpace=wrap;html=1;" vertex="1" parent="WkUN_PDqijOp8YvRxsLI-17">
          <mxGeometry y="26" width="160" height="26" as="geometry" />
        </mxCell>
        <mxCell id="WkUN_PDqijOp8YvRxsLI-65" value="str - Apto" style="text;strokeColor=none;fillColor=none;align=left;verticalAlign=top;spacingLeft=4;spacingRight=4;overflow=hidden;rotatable=0;points=[[0,0.5],[1,0.5]];portConstraint=eastwest;whiteSpace=wrap;html=1;" vertex="1" parent="WkUN_PDqijOp8YvRxsLI-17">
          <mxGeometry y="52" width="160" height="26" as="geometry" />
        </mxCell>
        <mxCell id="WkUN_PDqijOp8YvRxsLI-48" value="fk -&amp;nbsp; CONDOMINIO" style="text;strokeColor=none;fillColor=none;align=left;verticalAlign=top;spacingLeft=4;spacingRight=4;overflow=hidden;rotatable=0;points=[[0,0.5],[1,0.5]];portConstraint=eastwest;whiteSpace=wrap;html=1;" vertex="1" parent="WkUN_PDqijOp8YvRxsLI-17">
          <mxGeometry y="78" width="160" height="26" as="geometry" />
        </mxCell>
        <mxCell id="WkUN_PDqijOp8YvRxsLI-150" value="fk -&amp;nbsp; MORADOR" style="text;strokeColor=none;fillColor=none;align=left;verticalAlign=top;spacingLeft=4;spacingRight=4;overflow=hidden;rotatable=0;points=[[0,0.5],[1,0.5]];portConstraint=eastwest;whiteSpace=wrap;html=1;" vertex="1" parent="WkUN_PDqijOp8YvRxsLI-17">
          <mxGeometry y="104" width="160" height="26" as="geometry" />
        </mxCell>
        <mxCell id="WkUN_PDqijOp8YvRxsLI-19" value="" style="line;strokeWidth=1;fillColor=none;align=left;verticalAlign=middle;spacingTop=-1;spacingLeft=3;spacingRight=3;rotatable=0;labelPosition=right;points=[];portConstraint=eastwest;strokeColor=inherit;" vertex="1" parent="WkUN_PDqijOp8YvRxsLI-17">
          <mxGeometry y="130" width="160" height="8" as="geometry" />
        </mxCell>
        <mxCell id="WkUN_PDqijOp8YvRxsLI-21" value="Moradores" style="swimlane;fontStyle=2;align=center;verticalAlign=top;childLayout=stackLayout;horizontal=1;startSize=26;horizontalStack=0;resizeParent=1;resizeParentMax=0;resizeLast=0;collapsible=1;marginBottom=0;whiteSpace=wrap;html=1;fontSize=15;fillColor=#7628FC;strokeColor=#6c8ebf;fontColor=#FFFFFF;rounded=0;shadow=0;strokeWidth=1;" vertex="1" parent="WIyWlLk6GJQsqaUBKTNV-1">
          <mxGeometry x="1180" y="566" width="160" height="216" as="geometry" />
        </mxCell>
        <mxCell id="WkUN_PDqijOp8YvRxsLI-22" value="str - Nome" style="text;strokeColor=none;fillColor=none;align=left;verticalAlign=top;spacingLeft=4;spacingRight=4;overflow=hidden;rotatable=0;points=[[0,0.5],[1,0.5]];portConstraint=eastwest;whiteSpace=wrap;html=1;" vertex="1" parent="WkUN_PDqijOp8YvRxsLI-21">
          <mxGeometry y="26" width="160" height="26" as="geometry" />
        </mxCell>
        <mxCell id="WkUN_PDqijOp8YvRxsLI-66" value="str - Endereço" style="text;strokeColor=none;fillColor=none;align=left;verticalAlign=top;spacingLeft=4;spacingRight=4;overflow=hidden;rotatable=0;points=[[0,0.5],[1,0.5]];portConstraint=eastwest;whiteSpace=wrap;html=1;" vertex="1" parent="WkUN_PDqijOp8YvRxsLI-21">
          <mxGeometry y="52" width="160" height="26" as="geometry" />
        </mxCell>
        <mxCell id="WkUN_PDqijOp8YvRxsLI-67" value="img - Foto" style="text;strokeColor=none;fillColor=none;align=left;verticalAlign=top;spacingLeft=4;spacingRight=4;overflow=hidden;rotatable=0;points=[[0,0.5],[1,0.5]];portConstraint=eastwest;whiteSpace=wrap;html=1;" vertex="1" parent="WkUN_PDqijOp8YvRxsLI-21">
          <mxGeometry y="78" width="160" height="26" as="geometry" />
        </mxCell>
        <mxCell id="WkUN_PDqijOp8YvRxsLI-68" value="fk - TORRE" style="text;strokeColor=none;fillColor=none;align=left;verticalAlign=top;spacingLeft=4;spacingRight=4;overflow=hidden;rotatable=0;points=[[0,0.5],[1,0.5]];portConstraint=eastwest;whiteSpace=wrap;html=1;" vertex="1" parent="WkUN_PDqijOp8YvRxsLI-21">
          <mxGeometry y="104" width="160" height="26" as="geometry" />
        </mxCell>
        <mxCell id="WkUN_PDqijOp8YvRxsLI-91" value="fk - FINANCEIRO" style="text;strokeColor=none;fillColor=none;align=left;verticalAlign=top;spacingLeft=4;spacingRight=4;overflow=hidden;rotatable=0;points=[[0,0.5],[1,0.5]];portConstraint=eastwest;whiteSpace=wrap;html=1;" vertex="1" parent="WkUN_PDqijOp8YvRxsLI-21">
          <mxGeometry y="130" width="160" height="26" as="geometry" />
        </mxCell>
        <mxCell id="WkUN_PDqijOp8YvRxsLI-23" value="" style="line;strokeWidth=1;fillColor=none;align=left;verticalAlign=middle;spacingTop=-1;spacingLeft=3;spacingRight=3;rotatable=0;labelPosition=right;points=[];portConstraint=eastwest;strokeColor=inherit;" vertex="1" parent="WkUN_PDqijOp8YvRxsLI-21">
          <mxGeometry y="156" width="160" height="8" as="geometry" />
        </mxCell>
        <mxCell id="WkUN_PDqijOp8YvRxsLI-142" value="Editar()" style="text;align=left;verticalAlign=top;spacingLeft=4;spacingRight=4;overflow=hidden;rotatable=0;points=[[0,0.5],[1,0.5]];portConstraint=eastwest;" vertex="1" parent="WkUN_PDqijOp8YvRxsLI-21">
          <mxGeometry y="164" width="160" height="26" as="geometry" />
        </mxCell>
        <mxCell id="WkUN_PDqijOp8YvRxsLI-141" value="Reservar()" style="text;align=left;verticalAlign=top;spacingLeft=4;spacingRight=4;overflow=hidden;rotatable=0;points=[[0,0.5],[1,0.5]];portConstraint=eastwest;" vertex="1" parent="WkUN_PDqijOp8YvRxsLI-21">
          <mxGeometry y="190" width="160" height="26" as="geometry" />
        </mxCell>
        <mxCell id="WkUN_PDqijOp8YvRxsLI-49" value="AreasComuns" style="swimlane;fontStyle=2;align=center;verticalAlign=top;childLayout=stackLayout;horizontal=1;startSize=26;horizontalStack=0;resizeParent=1;resizeParentMax=0;resizeLast=0;collapsible=1;marginBottom=0;whiteSpace=wrap;html=1;fontSize=15;fillColor=#7628FC;strokeColor=#6c8ebf;fontColor=#FFFFFF;rounded=0;shadow=0;strokeWidth=1;" vertex="1" parent="WIyWlLk6GJQsqaUBKTNV-1">
          <mxGeometry x="640" y="670" width="160" height="138" as="geometry" />
        </mxCell>
        <mxCell id="WkUN_PDqijOp8YvRxsLI-50" value="str - Nome" style="text;strokeColor=none;fillColor=none;align=left;verticalAlign=top;spacingLeft=4;spacingRight=4;overflow=hidden;rotatable=0;points=[[0,0.5],[1,0.5]];portConstraint=eastwest;whiteSpace=wrap;html=1;" vertex="1" parent="WkUN_PDqijOp8YvRxsLI-49">
          <mxGeometry y="26" width="160" height="26" as="geometry" />
        </mxCell>
        <mxCell id="WkUN_PDqijOp8YvRxsLI-53" value="date - Data Disponivel" style="text;strokeColor=none;fillColor=none;align=left;verticalAlign=top;spacingLeft=4;spacingRight=4;overflow=hidden;rotatable=0;points=[[0,0.5],[1,0.5]];portConstraint=eastwest;whiteSpace=wrap;html=1;" vertex="1" parent="WkUN_PDqijOp8YvRxsLI-49">
          <mxGeometry y="52" width="160" height="26" as="geometry" />
        </mxCell>
        <mxCell id="WkUN_PDqijOp8YvRxsLI-51" value="fk -&amp;nbsp; CONDOMINIO" style="text;strokeColor=none;fillColor=none;align=left;verticalAlign=top;spacingLeft=4;spacingRight=4;overflow=hidden;rotatable=0;points=[[0,0.5],[1,0.5]];portConstraint=eastwest;whiteSpace=wrap;html=1;" vertex="1" parent="WkUN_PDqijOp8YvRxsLI-49">
          <mxGeometry y="78" width="160" height="26" as="geometry" />
        </mxCell>
        <mxCell id="WkUN_PDqijOp8YvRxsLI-146" value="fk -&amp;nbsp; MORADOR" style="text;strokeColor=none;fillColor=none;align=left;verticalAlign=top;spacingLeft=4;spacingRight=4;overflow=hidden;rotatable=0;points=[[0,0.5],[1,0.5]];portConstraint=eastwest;whiteSpace=wrap;html=1;" vertex="1" parent="WkUN_PDqijOp8YvRxsLI-49">
          <mxGeometry y="104" width="160" height="26" as="geometry" />
        </mxCell>
        <mxCell id="WkUN_PDqijOp8YvRxsLI-52" value="" style="line;strokeWidth=1;fillColor=none;align=left;verticalAlign=middle;spacingTop=-1;spacingLeft=3;spacingRight=3;rotatable=0;labelPosition=right;points=[];portConstraint=eastwest;strokeColor=inherit;" vertex="1" parent="WkUN_PDqijOp8YvRxsLI-49">
          <mxGeometry y="130" width="160" height="8" as="geometry" />
        </mxCell>
        <mxCell id="WkUN_PDqijOp8YvRxsLI-69" value="Assembleias" style="swimlane;fontStyle=2;align=center;verticalAlign=top;childLayout=stackLayout;horizontal=1;startSize=26;horizontalStack=0;resizeParent=1;resizeParentMax=0;resizeLast=0;collapsible=1;marginBottom=0;whiteSpace=wrap;html=1;fontSize=15;fillColor=#7628FC;strokeColor=#6c8ebf;fontColor=#FFFFFF;rounded=0;shadow=0;strokeWidth=1;" vertex="1" parent="WIyWlLk6GJQsqaUBKTNV-1">
          <mxGeometry x="133.5" y="550" width="293" height="138" as="geometry" />
        </mxCell>
        <mxCell id="WkUN_PDqijOp8YvRxsLI-70" value="str - Titulo" style="text;strokeColor=none;fillColor=none;align=left;verticalAlign=top;spacingLeft=4;spacingRight=4;overflow=hidden;rotatable=0;points=[[0,0.5],[1,0.5]];portConstraint=eastwest;whiteSpace=wrap;html=1;" vertex="1" parent="WkUN_PDqijOp8YvRxsLI-69">
          <mxGeometry y="26" width="293" height="26" as="geometry" />
        </mxCell>
        <mxCell id="WkUN_PDqijOp8YvRxsLI-71" value="date - Data" style="text;strokeColor=none;fillColor=none;align=left;verticalAlign=top;spacingLeft=4;spacingRight=4;overflow=hidden;rotatable=0;points=[[0,0.5],[1,0.5]];portConstraint=eastwest;whiteSpace=wrap;html=1;" vertex="1" parent="WkUN_PDqijOp8YvRxsLI-69">
          <mxGeometry y="52" width="293" height="26" as="geometry" />
        </mxCell>
        <mxCell id="WkUN_PDqijOp8YvRxsLI-72" value="str - Mensagem" style="text;strokeColor=none;fillColor=none;align=left;verticalAlign=top;spacingLeft=4;spacingRight=4;overflow=hidden;rotatable=0;points=[[0,0.5],[1,0.5]];portConstraint=eastwest;whiteSpace=wrap;html=1;" vertex="1" parent="WkUN_PDqijOp8YvRxsLI-69">
          <mxGeometry y="78" width="293" height="26" as="geometry" />
        </mxCell>
        <mxCell id="WkUN_PDqijOp8YvRxsLI-73" value="fk -&amp;nbsp; CONDOMINIO" style="text;strokeColor=none;fillColor=none;align=left;verticalAlign=top;spacingLeft=4;spacingRight=4;overflow=hidden;rotatable=0;points=[[0,0.5],[1,0.5]];portConstraint=eastwest;whiteSpace=wrap;html=1;" vertex="1" parent="WkUN_PDqijOp8YvRxsLI-69">
          <mxGeometry y="104" width="293" height="26" as="geometry" />
        </mxCell>
        <mxCell id="WkUN_PDqijOp8YvRxsLI-74" value="" style="line;strokeWidth=1;fillColor=none;align=left;verticalAlign=middle;spacingTop=-1;spacingLeft=3;spacingRight=3;rotatable=0;labelPosition=right;points=[];portConstraint=eastwest;strokeColor=inherit;" vertex="1" parent="WkUN_PDqijOp8YvRxsLI-69">
          <mxGeometry y="130" width="293" height="8" as="geometry" />
        </mxCell>
        <mxCell id="WkUN_PDqijOp8YvRxsLI-75" value="Obras" style="swimlane;fontStyle=2;align=center;verticalAlign=top;childLayout=stackLayout;horizontal=1;startSize=26;horizontalStack=0;resizeParent=1;resizeParentMax=0;resizeLast=0;collapsible=1;marginBottom=0;whiteSpace=wrap;html=1;fontSize=15;fillColor=#7628FC;strokeColor=#6c8ebf;fontColor=#FFFFFF;rounded=0;shadow=0;strokeWidth=1;" vertex="1" parent="WIyWlLk6GJQsqaUBKTNV-1">
          <mxGeometry x="266.5" y="862" width="160" height="190" as="geometry" />
        </mxCell>
        <mxCell id="WkUN_PDqijOp8YvRxsLI-76" value="str - Titulo" style="text;strokeColor=none;fillColor=none;align=left;verticalAlign=top;spacingLeft=4;spacingRight=4;overflow=hidden;rotatable=0;points=[[0,0.5],[1,0.5]];portConstraint=eastwest;whiteSpace=wrap;html=1;" vertex="1" parent="WkUN_PDqijOp8YvRxsLI-75">
          <mxGeometry y="26" width="160" height="26" as="geometry" />
        </mxCell>
        <mxCell id="WkUN_PDqijOp8YvRxsLI-77" value="date - Data Inicio" style="text;strokeColor=none;fillColor=none;align=left;verticalAlign=top;spacingLeft=4;spacingRight=4;overflow=hidden;rotatable=0;points=[[0,0.5],[1,0.5]];portConstraint=eastwest;whiteSpace=wrap;html=1;" vertex="1" parent="WkUN_PDqijOp8YvRxsLI-75">
          <mxGeometry y="52" width="160" height="26" as="geometry" />
        </mxCell>
        <mxCell id="WkUN_PDqijOp8YvRxsLI-88" value="date - Data Fim" style="text;strokeColor=none;fillColor=none;align=left;verticalAlign=top;spacingLeft=4;spacingRight=4;overflow=hidden;rotatable=0;points=[[0,0.5],[1,0.5]];portConstraint=eastwest;whiteSpace=wrap;html=1;" vertex="1" parent="WkUN_PDqijOp8YvRxsLI-75">
          <mxGeometry y="78" width="160" height="26" as="geometry" />
        </mxCell>
        <mxCell id="WkUN_PDqijOp8YvRxsLI-78" value="str - Prestador" style="text;strokeColor=none;fillColor=none;align=left;verticalAlign=top;spacingLeft=4;spacingRight=4;overflow=hidden;rotatable=0;points=[[0,0.5],[1,0.5]];portConstraint=eastwest;whiteSpace=wrap;html=1;" vertex="1" parent="WkUN_PDqijOp8YvRxsLI-75">
          <mxGeometry y="104" width="160" height="26" as="geometry" />
        </mxCell>
        <mxCell id="WkUN_PDqijOp8YvRxsLI-89" value="float - Valor" style="text;strokeColor=none;fillColor=none;align=left;verticalAlign=top;spacingLeft=4;spacingRight=4;overflow=hidden;rotatable=0;points=[[0,0.5],[1,0.5]];portConstraint=eastwest;whiteSpace=wrap;html=1;" vertex="1" parent="WkUN_PDqijOp8YvRxsLI-75">
          <mxGeometry y="130" width="160" height="26" as="geometry" />
        </mxCell>
        <mxCell id="WkUN_PDqijOp8YvRxsLI-79" value="fk -&amp;nbsp; CONDOMINIO" style="text;strokeColor=none;fillColor=none;align=left;verticalAlign=top;spacingLeft=4;spacingRight=4;overflow=hidden;rotatable=0;points=[[0,0.5],[1,0.5]];portConstraint=eastwest;whiteSpace=wrap;html=1;" vertex="1" parent="WkUN_PDqijOp8YvRxsLI-75">
          <mxGeometry y="156" width="160" height="26" as="geometry" />
        </mxCell>
        <mxCell id="WkUN_PDqijOp8YvRxsLI-80" value="" style="line;strokeWidth=1;fillColor=none;align=left;verticalAlign=middle;spacingTop=-1;spacingLeft=3;spacingRight=3;rotatable=0;labelPosition=right;points=[];portConstraint=eastwest;strokeColor=inherit;" vertex="1" parent="WkUN_PDqijOp8YvRxsLI-75">
          <mxGeometry y="182" width="160" height="8" as="geometry" />
        </mxCell>
        <mxCell id="WkUN_PDqijOp8YvRxsLI-82" value="Financeiro" style="swimlane;fontStyle=2;align=center;verticalAlign=top;childLayout=stackLayout;horizontal=1;startSize=26;horizontalStack=0;resizeParent=1;resizeParentMax=0;resizeLast=0;collapsible=1;marginBottom=0;whiteSpace=wrap;html=1;fontSize=15;fillColor=#7628FC;strokeColor=#6c8ebf;fontColor=#FFFFFF;rounded=0;shadow=0;strokeWidth=1;" vertex="1" parent="WIyWlLk6GJQsqaUBKTNV-1">
          <mxGeometry x="937" y="870" width="160" height="138" as="geometry" />
        </mxCell>
        <mxCell id="WkUN_PDqijOp8YvRxsLI-83" value="img - boleto" style="text;strokeColor=none;fillColor=none;align=left;verticalAlign=top;spacingLeft=4;spacingRight=4;overflow=hidden;rotatable=0;points=[[0,0.5],[1,0.5]];portConstraint=eastwest;whiteSpace=wrap;html=1;" vertex="1" parent="WkUN_PDqijOp8YvRxsLI-82">
          <mxGeometry y="26" width="160" height="26" as="geometry" />
        </mxCell>
        <mxCell id="WkUN_PDqijOp8YvRxsLI-84" value="date - Data" style="text;strokeColor=none;fillColor=none;align=left;verticalAlign=top;spacingLeft=4;spacingRight=4;overflow=hidden;rotatable=0;points=[[0,0.5],[1,0.5]];portConstraint=eastwest;whiteSpace=wrap;html=1;" vertex="1" parent="WkUN_PDqijOp8YvRxsLI-82">
          <mxGeometry y="52" width="160" height="26" as="geometry" />
        </mxCell>
        <mxCell id="WkUN_PDqijOp8YvRxsLI-85" value="str - Mensagem" style="text;strokeColor=none;fillColor=none;align=left;verticalAlign=top;spacingLeft=4;spacingRight=4;overflow=hidden;rotatable=0;points=[[0,0.5],[1,0.5]];portConstraint=eastwest;whiteSpace=wrap;html=1;" vertex="1" parent="WkUN_PDqijOp8YvRxsLI-82">
          <mxGeometry y="78" width="160" height="26" as="geometry" />
        </mxCell>
        <mxCell id="WkUN_PDqijOp8YvRxsLI-86" value="fk -&amp;nbsp; MORADOR" style="text;strokeColor=none;fillColor=none;align=left;verticalAlign=top;spacingLeft=4;spacingRight=4;overflow=hidden;rotatable=0;points=[[0,0.5],[1,0.5]];portConstraint=eastwest;whiteSpace=wrap;html=1;" vertex="1" parent="WkUN_PDqijOp8YvRxsLI-82">
          <mxGeometry y="104" width="160" height="26" as="geometry" />
        </mxCell>
        <mxCell id="WkUN_PDqijOp8YvRxsLI-87" value="" style="line;strokeWidth=1;fillColor=none;align=left;verticalAlign=middle;spacingTop=-1;spacingLeft=3;spacingRight=3;rotatable=0;labelPosition=right;points=[];portConstraint=eastwest;strokeColor=inherit;" vertex="1" parent="WkUN_PDqijOp8YvRxsLI-82">
          <mxGeometry y="130" width="160" height="8" as="geometry" />
        </mxCell>
        <mxCell id="WkUN_PDqijOp8YvRxsLI-109" value="&lt;font style=&quot;font-size: 22px;&quot;&gt;Diagrama de Classes - Condo Lar&lt;/font&gt;" style="text;align=center;fontStyle=1;verticalAlign=middle;spacingLeft=3;spacingRight=3;strokeColor=none;rotatable=0;points=[[0,0.5],[1,0.5]];portConstraint=eastwest;html=1;" vertex="1" parent="WIyWlLk6GJQsqaUBKTNV-1">
          <mxGeometry x="670" y="50" width="80" height="26" as="geometry" />
        </mxCell>
        <mxCell id="WkUN_PDqijOp8YvRxsLI-116" value="" style="endArrow=none;html=1;edgeStyle=orthogonalEdgeStyle;rounded=0;exitX=1;exitY=0.5;exitDx=0;exitDy=0;entryX=0;entryY=0.5;entryDx=0;entryDy=0;" edge="1" parent="WIyWlLk6GJQsqaUBKTNV-1" source="WkUN_PDqijOp8YvRxsLI-98" target="WkUN_PDqijOp8YvRxsLI-45">
          <mxGeometry relative="1" as="geometry">
            <mxPoint x="357" y="320" as="sourcePoint" />
            <mxPoint x="517" y="320" as="targetPoint" />
          </mxGeometry>
        </mxCell>
        <mxCell id="WkUN_PDqijOp8YvRxsLI-117" value="1.N" style="edgeLabel;resizable=0;html=1;align=left;verticalAlign=bottom;fontStyle=1;fontSize=13;" connectable="0" vertex="1" parent="WkUN_PDqijOp8YvRxsLI-116">
          <mxGeometry x="-1" relative="1" as="geometry">
            <mxPoint x="3" y="-1" as="offset" />
          </mxGeometry>
        </mxCell>
        <mxCell id="WkUN_PDqijOp8YvRxsLI-118" value="N.1" style="edgeLabel;resizable=0;html=1;align=right;verticalAlign=bottom;fontSize=13;fontStyle=1" connectable="0" vertex="1" parent="WkUN_PDqijOp8YvRxsLI-116">
          <mxGeometry x="1" relative="1" as="geometry">
            <mxPoint x="-6" as="offset" />
          </mxGeometry>
        </mxCell>
        <mxCell id="WkUN_PDqijOp8YvRxsLI-124" value="" style="endArrow=none;html=1;edgeStyle=orthogonalEdgeStyle;rounded=0;exitX=1.028;exitY=0.055;exitDx=0;exitDy=0;exitPerimeter=0;entryX=0;entryY=0.5;entryDx=0;entryDy=0;" edge="1" parent="WIyWlLk6GJQsqaUBKTNV-1" source="WkUN_PDqijOp8YvRxsLI-46" target="WkUN_PDqijOp8YvRxsLI-18">
          <mxGeometry relative="1" as="geometry">
            <mxPoint x="800" y="460" as="sourcePoint" />
            <mxPoint x="930" y="267" as="targetPoint" />
          </mxGeometry>
        </mxCell>
        <mxCell id="WkUN_PDqijOp8YvRxsLI-125" value="1.N" style="edgeLabel;resizable=0;html=1;align=left;verticalAlign=bottom;fontStyle=1;fontSize=13;" connectable="0" vertex="1" parent="WkUN_PDqijOp8YvRxsLI-124">
          <mxGeometry x="-1" relative="1" as="geometry">
            <mxPoint x="3" y="-1" as="offset" />
          </mxGeometry>
        </mxCell>
        <mxCell id="WkUN_PDqijOp8YvRxsLI-126" value="N.1" style="edgeLabel;resizable=0;html=1;align=right;verticalAlign=bottom;fontSize=13;fontStyle=1" connectable="0" vertex="1" parent="WkUN_PDqijOp8YvRxsLI-124">
          <mxGeometry x="1" relative="1" as="geometry">
            <mxPoint x="-6" as="offset" />
          </mxGeometry>
        </mxCell>
        <mxCell id="WkUN_PDqijOp8YvRxsLI-131" value="" style="endArrow=none;html=1;edgeStyle=orthogonalEdgeStyle;rounded=0;exitX=0;exitY=0.5;exitDx=0;exitDy=0;entryX=0.403;entryY=0.019;entryDx=0;entryDy=0;entryPerimeter=0;" edge="1" parent="WIyWlLk6GJQsqaUBKTNV-1" source="WkUN_PDqijOp8YvRxsLI-101" target="WkUN_PDqijOp8YvRxsLI-69">
          <mxGeometry relative="1" as="geometry">
            <mxPoint x="370" y="433" as="sourcePoint" />
            <mxPoint x="370" y="540" as="targetPoint" />
          </mxGeometry>
        </mxCell>
        <mxCell id="WkUN_PDqijOp8YvRxsLI-132" value="1.N" style="edgeLabel;resizable=0;html=1;align=left;verticalAlign=bottom;fontStyle=1;fontSize=13;" connectable="0" vertex="1" parent="WkUN_PDqijOp8YvRxsLI-131">
          <mxGeometry x="-1" relative="1" as="geometry">
            <mxPoint x="-30" y="-1" as="offset" />
          </mxGeometry>
        </mxCell>
        <mxCell id="WkUN_PDqijOp8YvRxsLI-133" value="N.1" style="edgeLabel;resizable=0;html=1;align=right;verticalAlign=bottom;fontSize=13;fontStyle=1" connectable="0" vertex="1" parent="WkUN_PDqijOp8YvRxsLI-131">
          <mxGeometry x="1" relative="1" as="geometry">
            <mxPoint x="-6" y="-9" as="offset" />
          </mxGeometry>
        </mxCell>
        <mxCell id="WkUN_PDqijOp8YvRxsLI-134" value="" style="endArrow=none;html=1;edgeStyle=orthogonalEdgeStyle;rounded=0;exitX=1;exitY=0.5;exitDx=0;exitDy=0;entryX=0.75;entryY=0;entryDx=0;entryDy=0;" edge="1" parent="WIyWlLk6GJQsqaUBKTNV-1" source="WkUN_PDqijOp8YvRxsLI-101" target="WkUN_PDqijOp8YvRxsLI-21">
          <mxGeometry relative="1" as="geometry">
            <mxPoint x="840" y="440" as="sourcePoint" />
            <mxPoint x="1060" y="488" as="targetPoint" />
          </mxGeometry>
        </mxCell>
        <mxCell id="WkUN_PDqijOp8YvRxsLI-135" value="1.N" style="edgeLabel;resizable=0;html=1;align=left;verticalAlign=bottom;fontStyle=1;fontSize=13;" connectable="0" vertex="1" parent="WkUN_PDqijOp8YvRxsLI-134">
          <mxGeometry x="-1" relative="1" as="geometry">
            <mxPoint x="3" y="-1" as="offset" />
          </mxGeometry>
        </mxCell>
        <mxCell id="WkUN_PDqijOp8YvRxsLI-136" value="N.1" style="edgeLabel;resizable=0;html=1;align=right;verticalAlign=bottom;fontSize=13;fontStyle=1" connectable="0" vertex="1" parent="WkUN_PDqijOp8YvRxsLI-134">
          <mxGeometry x="1" relative="1" as="geometry">
            <mxPoint x="-6" y="-6" as="offset" />
          </mxGeometry>
        </mxCell>
        <mxCell id="WkUN_PDqijOp8YvRxsLI-137" value="" style="endArrow=none;html=1;edgeStyle=orthogonalEdgeStyle;rounded=0;entryX=0.5;entryY=0;entryDx=0;entryDy=0;" edge="1" parent="WIyWlLk6GJQsqaUBKTNV-1" source="WkUN_PDqijOp8YvRxsLI-13" target="WkUN_PDqijOp8YvRxsLI-49">
          <mxGeometry relative="1" as="geometry">
            <mxPoint x="880" y="525" as="sourcePoint" />
            <mxPoint x="552" y="673" as="targetPoint" />
          </mxGeometry>
        </mxCell>
        <mxCell id="WkUN_PDqijOp8YvRxsLI-138" value="1.N" style="edgeLabel;resizable=0;html=1;align=left;verticalAlign=bottom;fontStyle=1;fontSize=13;" connectable="0" vertex="1" parent="WkUN_PDqijOp8YvRxsLI-137">
          <mxGeometry x="-1" relative="1" as="geometry">
            <mxPoint x="-28" y="28" as="offset" />
          </mxGeometry>
        </mxCell>
        <mxCell id="WkUN_PDqijOp8YvRxsLI-139" value="N.1" style="edgeLabel;resizable=0;html=1;align=right;verticalAlign=bottom;fontSize=13;fontStyle=1" connectable="0" vertex="1" parent="WkUN_PDqijOp8YvRxsLI-137">
          <mxGeometry x="1" relative="1" as="geometry">
            <mxPoint x="-6" y="-9" as="offset" />
          </mxGeometry>
        </mxCell>
        <mxCell id="WkUN_PDqijOp8YvRxsLI-143" value="" style="endArrow=none;html=1;edgeStyle=orthogonalEdgeStyle;rounded=0;exitX=0;exitY=0;exitDx=0;exitDy=0;entryX=1;entryY=0.5;entryDx=0;entryDy=0;" edge="1" parent="WIyWlLk6GJQsqaUBKTNV-1" source="WkUN_PDqijOp8YvRxsLI-21" target="WkUN_PDqijOp8YvRxsLI-53">
          <mxGeometry relative="1" as="geometry">
            <mxPoint x="580" y="525" as="sourcePoint" />
            <mxPoint x="1110" y="657" as="targetPoint" />
          </mxGeometry>
        </mxCell>
        <mxCell id="WkUN_PDqijOp8YvRxsLI-144" value="1.N" style="edgeLabel;resizable=0;html=1;align=left;verticalAlign=bottom;fontStyle=1;fontSize=13;" connectable="0" vertex="1" parent="WkUN_PDqijOp8YvRxsLI-143">
          <mxGeometry x="-1" relative="1" as="geometry">
            <mxPoint x="-31" y="15" as="offset" />
          </mxGeometry>
        </mxCell>
        <mxCell id="WkUN_PDqijOp8YvRxsLI-145" value="N.1" style="edgeLabel;resizable=0;html=1;align=right;verticalAlign=bottom;fontSize=13;fontStyle=1" connectable="0" vertex="1" parent="WkUN_PDqijOp8YvRxsLI-143">
          <mxGeometry x="1" relative="1" as="geometry">
            <mxPoint x="26" y="-6" as="offset" />
          </mxGeometry>
        </mxCell>
        <mxCell id="WkUN_PDqijOp8YvRxsLI-147" value="" style="endArrow=none;html=1;edgeStyle=orthogonalEdgeStyle;rounded=0;exitX=0.005;exitY=1.15;exitDx=0;exitDy=0;entryX=1;entryY=0.5;entryDx=0;entryDy=0;exitPerimeter=0;" edge="1" parent="WIyWlLk6GJQsqaUBKTNV-1" source="WkUN_PDqijOp8YvRxsLI-123" target="WkUN_PDqijOp8YvRxsLI-77">
          <mxGeometry relative="1" as="geometry">
            <mxPoint x="590" y="715" as="sourcePoint" />
            <mxPoint x="262" y="863" as="targetPoint" />
          </mxGeometry>
        </mxCell>
        <mxCell id="WkUN_PDqijOp8YvRxsLI-148" value="1.N" style="edgeLabel;resizable=0;html=1;align=left;verticalAlign=bottom;fontStyle=1;fontSize=13;" connectable="0" vertex="1" parent="WkUN_PDqijOp8YvRxsLI-147">
          <mxGeometry x="-1" relative="1" as="geometry">
            <mxPoint x="-69" y="24" as="offset" />
          </mxGeometry>
        </mxCell>
        <mxCell id="WkUN_PDqijOp8YvRxsLI-149" value="N.1" style="edgeLabel;resizable=0;html=1;align=right;verticalAlign=bottom;fontSize=13;fontStyle=1" connectable="0" vertex="1" parent="WkUN_PDqijOp8YvRxsLI-147">
          <mxGeometry x="1" relative="1" as="geometry">
            <mxPoint x="30" y="-7" as="offset" />
          </mxGeometry>
        </mxCell>
        <mxCell id="WkUN_PDqijOp8YvRxsLI-151" value="" style="endArrow=none;html=1;edgeStyle=orthogonalEdgeStyle;rounded=0;exitX=1;exitY=0.5;exitDx=0;exitDy=0;entryX=0.991;entryY=-0.094;entryDx=0;entryDy=0;entryPerimeter=0;" edge="1" parent="WIyWlLk6GJQsqaUBKTNV-1" source="WkUN_PDqijOp8YvRxsLI-68" target="WkUN_PDqijOp8YvRxsLI-18">
          <mxGeometry relative="1" as="geometry">
            <mxPoint x="1184" y="325" as="sourcePoint" />
            <mxPoint x="1440" y="277" as="targetPoint" />
          </mxGeometry>
        </mxCell>
        <mxCell id="WkUN_PDqijOp8YvRxsLI-152" value="1.N" style="edgeLabel;resizable=0;html=1;align=left;verticalAlign=bottom;fontStyle=1;fontSize=13;" connectable="0" vertex="1" parent="WkUN_PDqijOp8YvRxsLI-151">
          <mxGeometry x="-1" relative="1" as="geometry">
            <mxPoint x="15" y="-7" as="offset" />
          </mxGeometry>
        </mxCell>
        <mxCell id="WkUN_PDqijOp8YvRxsLI-153" value="N.1" style="edgeLabel;resizable=0;html=1;align=right;verticalAlign=bottom;fontSize=13;fontStyle=1" connectable="0" vertex="1" parent="WkUN_PDqijOp8YvRxsLI-151">
          <mxGeometry x="1" relative="1" as="geometry">
            <mxPoint x="34" as="offset" />
          </mxGeometry>
        </mxCell>
        <mxCell id="WkUN_PDqijOp8YvRxsLI-154" value="" style="endArrow=none;html=1;edgeStyle=orthogonalEdgeStyle;rounded=0;entryX=1;entryY=0.5;entryDx=0;entryDy=0;exitX=0.352;exitY=1.111;exitDx=0;exitDy=0;exitPerimeter=0;" edge="1" parent="WIyWlLk6GJQsqaUBKTNV-1" source="WkUN_PDqijOp8YvRxsLI-141" target="WkUN_PDqijOp8YvRxsLI-85">
          <mxGeometry relative="1" as="geometry">
            <mxPoint x="1160" y="834" as="sourcePoint" />
            <mxPoint x="1220" y="1050" as="targetPoint" />
          </mxGeometry>
        </mxCell>
        <mxCell id="WkUN_PDqijOp8YvRxsLI-155" value="1.N" style="edgeLabel;resizable=0;html=1;align=left;verticalAlign=bottom;fontStyle=1;fontSize=13;" connectable="0" vertex="1" parent="WkUN_PDqijOp8YvRxsLI-154">
          <mxGeometry x="-1" relative="1" as="geometry">
            <mxPoint x="-38" y="26" as="offset" />
          </mxGeometry>
        </mxCell>
        <mxCell id="WkUN_PDqijOp8YvRxsLI-156" value="N.1" style="edgeLabel;resizable=0;html=1;align=right;verticalAlign=bottom;fontSize=13;fontStyle=1" connectable="0" vertex="1" parent="WkUN_PDqijOp8YvRxsLI-154">
          <mxGeometry x="1" relative="1" as="geometry">
            <mxPoint x="34" y="-7" as="offset" />
          </mxGeometry>
        </mxCell>
      </root>
    </mxGraphModel>
  </diagram>
</mxfile>
